<svg width="100" height="100" viewBox="0 0 100 100" fill="none" xmlns="http://www.w3.org/2000/svg">
<circle cx="50" cy="50" r="50" fill="#E9E7EE"/>
<g clip-path="url(#clip0)">
<path d="M54.7365 41.8075C54.0897 41.8075 53.5651 42.3325 53.5651 42.9793C53.5651 43.6257 54.0897 44.1508 54.7365 44.1508C55.3833 44.1508 55.9079 43.6257 55.9079 42.9793C55.9079 42.3325 55.3833 41.8075 54.7365 41.8075V41.8075Z" fill="#4D2960"/>
<path d="M47.632 64.6952C48.0893 64.237 48.0893 63.4954 47.632 63.0372C47.1742 62.5803 46.4327 62.5803 45.9744 63.0372C45.5176 63.4954 45.5176 64.237 45.9744 64.6952C46.4327 65.1521 47.1742 65.1521 47.632 64.6952Z" fill="#4D2960"/>
<path d="M33.553 83.6535C34.0071 84.1113 34.7464 84.1163 35.2065 83.6631L40.8864 78.0674C41.8514 77.1024 42.1448 75.6738 41.7204 74.4318L42.9422 73.2536C43.6 72.6182 44.4661 72.268 45.3816 72.268H60.9561C63.7192 72.268 66.3307 71.2069 68.3106 69.2802C68.3921 69.201 67.6921 70.0254 78.9357 56.5873C80.6034 54.6143 80.3539 51.6517 78.3791 49.9822C76.4167 48.3283 73.4769 48.5659 71.8047 50.505L64.8915 57.6104C64.0186 56.536 62.6874 55.8663 61.2491 55.8663H48.185C46.326 55.0886 44.3535 54.6949 42.3183 54.6949C36.6786 54.6949 31.7517 57.2987 29.1072 62.1858C27.9935 61.9747 26.8189 62.3116 25.9738 63.1567L20.4006 68.7464C19.9455 69.2028 19.9446 69.9412 20.3987 70.3985L33.553 83.6535ZM42.3178 57.0377C44.1123 57.0377 45.8472 57.3989 47.4754 58.1112C47.6238 58.1762 47.7835 58.2096 47.9451 58.2096H61.2491C62.5194 58.2096 63.5924 59.2455 63.5924 60.5524C63.5924 61.8447 62.5414 62.8957 61.2491 62.8957H51.6905C51.0437 62.8957 50.5191 63.4203 50.5191 64.0672C50.5191 64.7144 51.0437 65.2386 51.6905 65.2386H61.2491C63.8332 65.2386 65.9352 63.1365 65.9352 60.5524C65.9352 60.3465 65.9206 60.1423 65.894 59.94C72.5815 53.0657 73.5245 52.0998 73.5648 52.0518C74.3997 51.0662 75.882 50.9412 76.868 51.7725C77.8549 52.607 77.9799 54.0884 77.1427 55.0794L66.6347 67.6414C65.1003 69.1145 63.0857 69.9252 60.9561 69.9252H45.3816C43.8555 69.9252 42.4108 70.5088 41.3149 71.5676L40.3192 72.5285L31.1411 63.3508C33.2861 59.3266 37.3113 57.0377 42.3178 57.0377V57.0377ZM27.6318 64.8124C28.0182 64.426 28.6115 64.3565 29.0825 64.6476C29.2615 64.7566 39.2819 74.8017 39.3437 74.8846C39.6866 75.3465 39.6376 76.0024 39.2362 76.4044L34.3939 81.1747L22.8825 69.5754L27.6318 64.8124Z" fill="#4D2960"/>
<path d="M38.3348 48.8369H66.452C68.3902 48.8369 69.9668 47.2604 69.9668 45.3222C69.9668 42.3691 69.9668 29.6383 69.9668 27.5147C69.9668 25.5765 68.3902 24 66.452 24H38.3348C36.3966 24 34.8201 25.5765 34.8201 27.5147V45.3222C34.8201 47.2604 36.3966 48.8369 38.3348 48.8369ZM67.6235 33.3723H37.1634V31.0294H67.6235V33.3723ZM66.452 46.4941H38.3348C37.6889 46.4941 37.1634 45.9681 37.1634 45.3222V35.7156H67.6235V45.3222C67.6235 45.9681 67.0979 46.4941 66.452 46.4941ZM38.3348 26.3433H66.452C67.0979 26.3433 67.6235 26.8688 67.6235 27.5147V28.6861H37.1634V27.5147C37.1634 26.8688 37.6889 26.3433 38.3348 26.3433Z" fill="#4D2960"/>
<path d="M64.1088 41.8075H59.4226C58.7758 41.8075 58.2512 42.3321 58.2512 42.9793C58.2512 43.6262 58.7758 44.1508 59.4226 44.1508H64.1088C64.756 44.1508 65.2806 43.6262 65.2806 42.9793C65.2806 42.3321 64.756 41.8075 64.1088 41.8075V41.8075Z" fill="#4D2960"/>
</g>
<defs>
<clipPath id="clip0">
<rect width="59.8828" height="60" fill="white" transform="translate(20 24)"/>
</clipPath>
</defs>
</svg>
